# xmcd CD database file
#
# Track frame offsets:
#	150
#	11574
#	25407
#	38205
#	51919
#	65635
#	76714
#	89475
#	103111
#	115082
#	129304
#	139876
#	153551
#	168435
#	180311
#	195085
#	209191
#	220311
#	235379
#	247403
#	261438
#	275846
#
# Disc length: 3841 seconds
#
# Revision: 1
# Processed by: cddbd v1.4PL0 Copyright (c) Steve Scherf et al.
# Submitted via: CDex 1.51
#
DISCID=4b0eff16
DTITLE=Jimmy Giuffre - Complete 1947-1952 Master Takes
DYEAR=1900
DGENRE=Jazz
TTITLE0=I´ll Follow You
TTITLE1=Bop
TTITLE2=Baby! Let´s Be Friends
TTITLE3=My Baby Done Left Me
TTITLE4=Popo
TTITLE5=Didi
TTITLE6=Four Mothers
TTITLE7=Over The Rainbow
TTITLE8=A Propos
TTITLE9=Sam And The Lady
TTITLE10=It Donn´t Mean a Thing
TTITLE11=Deep People
TTITLE12=The Princess Of Evil
TTITLE13=Slightly Brightly
TTITLE14=Out Of Somewhere
TTITLE15=Big Girl
TTITLE16=Swing Shift
TTITLE17=Viva Zapata! no 1
TTITLE18=Block Buster
TTITLE19=Shortnin´ Bread
TTITLE20=Oh Happy Day
TTITLE21=Dynamite
EXTD=
EXTT0=
EXTT1=
EXTT2=
EXTT3=
EXTT4=
EXTT5=
EXTT6=
EXTT7=
EXTT8=
EXTT9=
EXTT10=
EXTT11=
EXTT12=
EXTT13=
EXTT14=
EXTT15=
EXTT16=
EXTT17=
EXTT18=
EXTT19=
EXTT20=
EXTT21=
PLAYORDER=
